<?xml version="1.0" encoding="utf-8"?>
<!-- Generator: Adobe Illustrator 26.0.1, SVG Export Plug-In . SVG Version: 6.00 Build 0)  -->
<svg version="1.1" id="Layer_1" xmlns="http://www.w3.org/2000/svg" xmlns:xlink="http://www.w3.org/1999/xlink" x="0px" y="0px"
	 viewBox="0 0 243 243" style="enable-background:new 0 0 243 243;" xml:space="preserve">
<style type="text/css">
	.st0{display:none;}
	.st1{display:inline;}
	.st2{fill:none;stroke:#FFFFFF;stroke-width:14;stroke-linecap:round;stroke-linejoin:round;stroke-miterlimit:10;}
</style>
<g id="Layer_1_00000036246444577584574790000005483249950854550938_" class="st0">
	<g id="Layer_1_2_" class="st1">
		<g id="Layer_1_1_">
			<g>
				<path d="M121.5,243C54.5,243,0,188.5,0,121.5S54.5,0,121.5,0S243,54.5,243,121.5S188.5,243,121.5,243z M121.5,18
					C64.4,18,18,64.4,18,121.5S64.4,225,121.5,225S225,178.6,225,121.5S178.6,18,121.5,18z"/>
			</g>
		</g>
		<g id="Layer_2_00000106113969018164988030000011606515219401925288_">
		</g>
	</g>
	<g id="Layer_2_1_" class="st1">
		<g id="Layer_3_2_">
			<path d="M170.3,83.4c-17.8,0-45.3,24-53,31.1c-0.5,0.3-1,0.6-1.4,1.1c-14.3,13.4-34.8,27.8-43.1,27.8c-12,0-21.8-9.8-21.8-21.8
				s9.8-21.8,21.8-21.8c1.8,0,9.1,1,26.1,13.7c1.4,1.1,4.6,3.4,4.6,3.4l12.7-10.6c0,0-5.8-4.5-7.6-5.8c-15.2-11.4-27-16.9-35.8-16.9
				c-21,0-38.1,17.1-38.1,38.1s17.1,38.1,38.1,38.1c17.8,0,45.3-24,53-31.1c0.5-0.3,1-0.6,1.4-1.1c14.3-13.4,34.8-27.8,43.1-27.8
				c12,0,21.8,9.8,21.8,21.8s-9.8,21.8-21.8,21.8c-1.8,0-9-1-25.7-13.4c-1.4-1-4.6-3.5-4.6-3.5l-12.6,10.4c0,0,3.9,3.5,7.5,6.1
				c15.2,11.3,26.5,16.6,35.4,16.6c21,0,38.1-17.1,38.1-38.1S191.3,83.4,170.3,83.4z"/>
		</g>
	</g>
</g>
<g id="Layer_2_2_" class="st0">
	<g class="st1">
		<path class="st2" d="M234.8,121.5c0,62.6-50.7,113.3-113.3,113.3S8.2,184.1,8.2,121.5C8.2,58.9,58.9,8.2,121.5,8.2
			S234.8,58.9,234.8,121.5z"/>
		<g>
			<line class="st2" x1="180.1" y1="60.4" x2="60.7" y2="179.8"/>
			<path class="st2" d="M76.4,163.8c-11.6-11.6,0.5-47.1,29.3-75.9c14.8-14.8,31.1-25.6,40.9-30.5v36.4"/>
			<line class="st2" x1="114.1" y1="126.4" x2="161.5" y2="126.4"/>
			<path class="st2" d="M94.4,146.1h52.2C119.1,171.2,86.4,174,76.4,164"/>
			<path class="st2" d="M180.2,60.2c9,9,6.9,26.8-4.4,46.5h-42"/>
		</g>
	</g>
</g>
<path d="M121.5,7.8C58.7,7.8,7.8,58.7,7.8,121.4c0,62.8,50.9,113.7,113.7,113.7s113.7-50.9,113.7-113.7
	C235.1,58.7,184.3,7.8,121.5,7.8z M151.4,165.7c3.3,2.5,3.9,7.2,1.4,10.5c-1.5,1.9-3.7,2.9-6,2.9c-1.6,0-3.2-0.5-4.5-1.5l-65.6-50.1
	c-1.9-1.4-2.9-3.6-2.9-6s1.1-4.5,2.9-6l65.6-50.2c3.3-2.5,8-1.9,10.5,1.4s1.9,8-1.4,10.5l-57.8,44.2L151.4,165.7z"/>
</svg>
