<svg width="205" height="37" viewBox="0 0 205 37" fill="none" xmlns="http://www.w3.org/2000/svg">
<path d="M21.5126 5.16404L7.50284 27.664H12.038C14.1825 27.664 15.6825 27.5293 16.538 27.2597C17.9325 26.8379 19.1337 26.0644 20.1415 24.9394C21.1493 23.8027 21.8466 22.2851 22.2333 20.3867H22.9189L21.9521 29H0.120026L14.1474 6.46483H10.6142C9.24307 6.46483 8.34073 6.50584 7.90714 6.58787C7.08682 6.74022 6.31339 7.0449 5.58682 7.50194C4.87198 7.94725 4.27432 8.5449 3.79385 9.2949C3.3251 10.0449 2.95596 10.9941 2.68643 12.1426H2.03604L2.68643 5.16404H21.5126Z" fill="white"/>
<path d="M33.3603 6.53514V16.2383H33.8349C35.3466 16.2383 36.4423 15.7637 37.122 14.8144C37.8017 13.8652 38.2353 12.4648 38.4228 10.6133H39.0907V23.0937H38.4228C38.2821 21.7344 37.9833 20.6211 37.5263 19.7539C37.081 18.8867 36.5595 18.3066 35.9618 18.0137C35.3642 17.709 34.497 17.5566 33.3603 17.5566V24.2715C33.3603 25.584 33.413 26.3867 33.5185 26.6797C33.6357 26.9726 33.8466 27.2129 34.1513 27.4004C34.456 27.5879 34.9482 27.6816 35.6278 27.6816H37.0517C39.2782 27.6816 41.0595 27.166 42.3954 26.1347C43.7431 25.1035 44.7099 23.5332 45.2958 21.4238H45.9462L44.8739 29H24.2724V28.3496H25.0634C25.7548 28.3496 26.3114 28.2265 26.7333 27.9805C27.038 27.8164 27.2724 27.5351 27.4364 27.1367C27.5653 26.8555 27.6298 26.1172 27.6298 24.9219V9.24217C27.6298 8.16404 27.6005 7.50194 27.5419 7.25584C27.4247 6.84569 27.2079 6.52928 26.8915 6.30662C26.4462 5.9785 25.8368 5.81444 25.0634 5.81444H24.2724V5.16404H44.2235V12.2129H43.5556C43.2157 10.4902 42.7353 9.25389 42.1142 8.50389C41.5048 7.75389 40.6376 7.20311 39.5126 6.85154C38.8564 6.64061 37.6259 6.53514 35.8212 6.53514H33.3603Z" fill="white"/>
<path d="M57.1259 18.1367V24.8164C57.1259 26.1055 57.2021 26.9199 57.3544 27.2597C57.5185 27.5879 57.7997 27.8515 58.1982 28.0508C58.5966 28.25 59.3407 28.3496 60.4306 28.3496V29H48.2314V28.3496C49.3329 28.3496 50.0771 28.25 50.4638 28.0508C50.8622 27.8398 51.1376 27.5703 51.2899 27.2422C51.454 26.914 51.536 26.1055 51.536 24.8164V9.34764C51.536 8.05858 51.454 7.24998 51.2899 6.92186C51.1376 6.58201 50.8622 6.31248 50.4638 6.11326C50.0653 5.91404 49.3212 5.81444 48.2314 5.81444V5.16404H59.3056C62.1884 5.16404 64.2978 5.36326 65.6337 5.7617C66.9696 6.16014 68.0595 6.89842 68.9032 7.97654C69.747 9.04295 70.1689 10.2969 70.1689 11.7383C70.1689 13.4961 69.536 14.9492 68.2704 16.0976C67.4618 16.8242 66.331 17.3691 64.8778 17.7324L70.6083 25.8008C71.3583 26.8437 71.8915 27.4941 72.2079 27.7519C72.6884 28.1152 73.245 28.3144 73.8778 28.3496V29H66.372L58.6903 18.1367H57.1259ZM57.1259 6.44725V16.8887H58.1278C59.7567 16.8887 60.9755 16.7422 61.7841 16.4492C62.5927 16.1445 63.2255 15.6055 63.6825 14.832C64.1513 14.0469 64.3857 13.0273 64.3857 11.7734C64.3857 9.95701 63.9579 8.61522 63.1024 7.74803C62.2587 6.88084 60.8935 6.44725 59.0067 6.44725H57.1259Z" fill="white"/>
<path d="M87.4833 4.83006C91.2802 4.68944 94.3622 5.79686 96.7294 8.15233C99.1083 10.5078 100.298 13.4551 100.298 16.9941C100.298 20.0176 99.413 22.6777 97.6435 24.9746C95.2997 28.0215 91.9892 29.5449 87.7118 29.5449C83.4228 29.5449 80.1064 28.0918 77.7626 25.1855C75.911 22.8887 74.9853 20.164 74.9853 17.0117C74.9853 13.4726 76.1864 10.5254 78.5888 8.1699C81.0028 5.80272 83.9677 4.68944 87.4833 4.83006ZM87.6942 5.95506C85.5146 5.95506 83.8564 7.06834 82.7196 9.2949C81.7939 11.123 81.331 13.748 81.331 17.1699C81.331 21.2363 82.0458 24.2422 83.4755 26.1875C84.4716 27.5469 85.8661 28.2265 87.6591 28.2265C88.8661 28.2265 89.8739 27.9336 90.6825 27.3476C91.7138 26.5976 92.5165 25.4023 93.0907 23.7617C93.6649 22.1094 93.9521 19.959 93.9521 17.3105C93.9521 14.1582 93.6591 11.8027 93.0732 10.2441C92.4872 8.67381 91.7372 7.56639 90.8232 6.92186C89.9208 6.27733 88.8778 5.95506 87.6942 5.95506Z" fill="white"/>
<path d="M118.333 6.55272V12.5644H122.235V14.3047H118.333V24.4472C118.333 25.3965 118.374 26.0117 118.456 26.293C118.55 26.5625 118.708 26.7851 118.931 26.9609C119.153 27.125 119.358 27.207 119.546 27.207C120.308 27.207 121.028 26.6269 121.708 25.4668L122.235 25.8535C121.286 28.1035 119.745 29.2285 117.612 29.2285C116.569 29.2285 115.684 28.9414 114.958 28.3672C114.243 27.7812 113.786 27.1308 113.587 26.416C113.47 26.0176 113.411 24.9394 113.411 23.1816V14.3047H111.267V13.6894C112.743 12.6465 113.997 11.5508 115.028 10.4023C116.071 9.25389 116.979 7.97069 117.753 6.55272H118.333Z" fill="white"/>
<path d="M131.552 12.0722C132.981 12.0722 134.311 12.4414 135.542 13.1797C136.772 13.918 137.704 14.9668 138.337 16.3262C138.981 17.6855 139.304 19.1738 139.304 20.791C139.304 23.123 138.712 25.0742 137.528 26.6445C136.099 28.543 134.124 29.4922 131.604 29.4922C129.132 29.4922 127.227 28.625 125.892 26.8906C124.556 25.1562 123.888 23.1465 123.888 20.8613C123.888 18.5058 124.567 16.4551 125.927 14.709C127.298 12.9512 129.173 12.0722 131.552 12.0722ZM131.622 13.3203C131.024 13.3203 130.509 13.5488 130.075 14.0058C129.653 14.4512 129.372 15.3418 129.231 16.6777C129.102 18.0019 129.038 19.8476 129.038 22.2148C129.038 23.4687 129.12 24.6406 129.284 25.7305C129.413 26.5625 129.688 27.1953 130.11 27.6289C130.532 28.0625 131.013 28.2793 131.552 28.2793C132.079 28.2793 132.518 28.1328 132.87 27.8398C133.327 27.4414 133.632 26.8847 133.784 26.1699C134.018 25.0566 134.136 22.8066 134.136 19.4199C134.136 17.4277 134.024 16.0625 133.802 15.3242C133.579 14.5742 133.251 14.0293 132.817 13.6894C132.513 13.4433 132.114 13.3203 131.622 13.3203Z" fill="white"/>
<path d="M159.308 18.207V24.8164C159.308 26.1055 159.384 26.9199 159.536 27.2597C159.7 27.5879 159.981 27.8515 160.38 28.0508C160.79 28.25 161.534 28.3496 162.612 28.3496V29H150.501V28.3496C151.602 28.3496 152.347 28.25 152.733 28.0508C153.132 27.8398 153.407 27.5703 153.559 27.2422C153.724 26.914 153.806 26.1055 153.806 24.8164V9.34764C153.806 8.05858 153.724 7.24998 153.559 6.92186C153.407 6.58201 153.132 6.31248 152.733 6.11326C152.335 5.91404 151.591 5.81444 150.501 5.81444V5.16404H160.89C164.311 5.16404 166.767 5.77342 168.255 6.99217C169.743 8.21092 170.487 9.73436 170.487 11.5625C170.487 13.1094 170.007 14.4336 169.046 15.5351C168.085 16.6367 166.761 17.3867 165.073 17.7851C163.936 18.0664 162.015 18.207 159.308 18.207ZM159.308 6.53514V16.8359C159.694 16.8594 159.987 16.8711 160.186 16.8711C161.616 16.8711 162.718 16.4492 163.491 15.6055C164.265 14.75 164.651 13.4316 164.651 11.6504C164.651 9.88084 164.265 8.58592 163.491 7.76561C162.718 6.94529 161.563 6.53514 160.028 6.53514H159.308Z" fill="white"/>
<path d="M188.751 20.8789L195.22 5.16404H204.923V5.81444H204.149C203.446 5.81444 202.884 5.93748 202.462 6.18358C202.169 6.34764 201.934 6.62303 201.759 7.00975C201.63 7.291 201.565 8.02342 201.565 9.20701V24.9219C201.565 26.1406 201.63 26.9023 201.759 27.207C201.888 27.5117 202.151 27.7812 202.55 28.0156C202.948 28.2383 203.481 28.3496 204.149 28.3496H204.923V29H192.477V28.3496H193.251C193.954 28.3496 194.517 28.2265 194.938 27.9805C195.231 27.8164 195.466 27.5351 195.642 27.1367C195.77 26.8555 195.835 26.1172 195.835 24.9219V7.25584L186.694 29H186.272L176.991 7.41404V24.2012C176.991 25.373 177.02 26.0937 177.079 26.3633C177.231 26.9492 177.559 27.4297 178.063 27.8047C178.579 28.168 179.382 28.3496 180.472 28.3496V29H172.315V28.3496H172.561C173.089 28.3613 173.581 28.2793 174.038 28.1035C174.495 27.916 174.841 27.6699 175.075 27.3652C175.309 27.0605 175.491 26.6328 175.62 26.082C175.643 25.9531 175.655 25.3555 175.655 24.289V9.20701C175.655 7.99998 175.591 7.24998 175.462 6.95701C175.333 6.65233 175.069 6.38865 174.671 6.166C174.272 5.93162 173.739 5.81444 173.071 5.81444H172.315V5.16404H182.054L188.751 20.8789Z" fill="white"/>
</svg>
